<svg viewBox="0 0 200 200" xmlns="http://www.w3.org/2000/svg">
        <path
          fill="#ef233c"
          d="M35.3,-53.4C48.9,-46.2,65.3,-41.7,67.7,-32.2C70.2,-22.6,58.8,-7.9,52.9,5C47,18,46.7,29.1,41.4,36.8C36.2,44.5,25.9,48.8,14.8,53.5C3.7,58.1,-8.2,63.2,-20.3,62.6C-32.4,62,-44.6,55.7,-48.6,45.3C-52.6,35,-48.3,20.7,-48.3,8.1C-48.2,-4.4,-52.6,-15.2,-53,-28.3C-53.4,-41.5,-50,-56.9,-40.5,-66.1C-31,-75.2,-15.5,-78,-2.3,-74.3C10.9,-70.7,21.7,-60.7,35.3,-53.4Z"
          transform="translate(100 100)"
        />
</svg>